<?xml version="1.0" standalone="no"?>
<!DOCTYPE svg PUBLIC "-//W3C//DTD SVG 20010904//EN"
 "http://www.w3.org/TR/2001/REC-SVG-20010904/DTD/svg10.dtd">
<svg version="1.0" xmlns="http://www.w3.org/2000/svg"
 width="800.000000pt" height="800.000000pt" viewBox="0 0 800.000000 800.000000"
 preserveAspectRatio="xMidYMid meet">
<metadata>
Created by potrace 1.14, written by Peter Selinger 2001-2017
</metadata>
<g transform="translate(0.000000,800.000000) scale(0.100000,-0.100000)"
fill="#000000" stroke="none">
<path d="M1158 7984 c-288 -52 -514 -242 -673 -568 -195 -397 -270 -904 -235
-1581 55 -1044 282 -2075 707 -3213 318 -854 628 -1446 899 -1718 181 -182
317 -207 498 -91 87 56 235 210 353 367 55 74 192 275 303 445 228 350 270
411 351 510 203 249 302 247 433 -13 43 -86 111 -256 226 -571 184 -503 262
-691 375 -909 223 -427 463 -642 718 -642 473 0 1106 926 1779 2605 246 614
532 1444 657 1910 129 481 195 927 208 1405 17 620 -93 1162 -307 1514 -195
322 -456 499 -812 552 -284 42 -584 -14 -880 -164 -173 -87 -314 -181 -638
-422 -322 -240 -434 -314 -582 -385 -441 -212 -717 -148 -1708 395 -458 251
-750 393 -974 474 -286 104 -504 135 -698 100z m2324 -2310 c68 -23 109 -63
282 -278 l157 -195 202 161 c111 88 220 169 242 181 60 30 157 34 225 8 76
-29 123 -71 159 -143 60 -119 36 -253 -60 -344 -24 -23 -122 -103 -216 -179
-95 -75 -173 -141 -173 -147 0 -5 71 -98 159 -206 87 -108 167 -213 177 -232
28 -53 27 -200 -3 -255 -29 -54 -86 -110 -142 -137 -72 -36 -179 -33 -257 7
-53 27 -75 51 -217 225 -87 107 -164 203 -172 213 -12 17 -29 6 -221 -147
-262 -209 -315 -231 -451 -191 -152 45 -243 219 -193 370 25 75 55 107 260
272 113 91 206 169 208 174 2 5 -68 98 -156 207 -87 108 -167 213 -177 232
-23 45 -31 157 -15 213 32 115 154 207 274 207 34 0 83 -7 108 -16z"/>
</g>
</svg>
