<svg width="1440" height="1022" viewBox="0 0 1440 1022" fill="none" xmlns="http://www.w3.org/2000/svg">
<mask id="mask0_20_21797" style="mask-type:alpha" maskUnits="userSpaceOnUse" x="0" y="0" width="1440" height="1022">
<rect width="1440" height="1022" fill="#C4C4C4"/>
</mask>
<g mask="url(#mask0_20_21797)">
<path opacity="0.5" d="M-237.746 227.537L-95.403 256.971M-237.746 227.537L-315.778 346.29M-237.746 227.537L-251.01 179.848M-237.746 227.537L-317.369 210.76M46.9398 286.405L-2.50839 364.252M46.9398 286.405L112.2 313.924M46.9398 286.405L-95.403 256.971M46.9398 286.405L2.89923 170.985M46.9398 286.405L167.008 255.345M-51.9566 442.099L-219.919 476.36M-51.9566 442.099L-2.50839 364.252M-51.9566 442.099L-33.8691 507.131M-51.9566 442.099L-135.148 337.05M-219.919 476.36L-135.148 337.05M-219.919 476.36L-268.78 489.95L-315.778 346.29M-219.919 476.36L-193.055 572.944L-166.192 669.527M-166.192 669.527L75.3035 589.904M-166.192 669.527L-119.248 586.408L-33.8691 507.131M-166.192 669.527L-53.6946 689.617M-166.192 669.527L-146.899 738.894M75.3035 589.904L235.334 609.228M75.3035 589.904L117.598 689.721M75.3035 589.904L101.376 525.045M75.3035 589.904L-53.6946 689.617M142.48 422.791L-2.50839 364.252M142.48 422.791L246.427 525.96M142.48 422.791L257.52 442.693M142.48 422.791L101.376 525.045M142.48 422.791L-33.8691 507.131M-2.50839 364.252L-135.148 337.05M235.334 609.228L246.427 525.96M235.334 609.228L325.201 624.454M235.334 609.228L237.342 690.15M257.52 442.693L112.2 313.924M257.52 442.693L300.917 316.966M257.52 442.693L246.427 525.96M257.52 442.693L222.283 316.002M257.52 442.693L337.507 420.446M112.2 313.924L167.008 255.345M221.815 196.767L300.917 316.966M221.815 196.767L167.008 255.345M221.815 196.767L92.7779 96.6838M221.815 196.767L327.135 187.426M221.815 196.767L214.958 77.01M300.917 316.966L426.691 422.108M300.917 316.966L290.198 250.348L327.135 187.426M300.917 316.966L222.283 316.002M300.917 316.966L337.507 420.446M300.917 316.966L455.821 273.882M246.427 525.96L358.395 523.622M246.427 525.96L305.84 554.846L325.201 624.454M358.395 523.622L415.067 639.68M358.395 523.622L426.691 422.108M358.395 523.622L337.507 420.446M415.067 639.68L325.201 624.454M415.067 639.68L372.038 703.286M415.067 639.68L452.213 611.703M329.008 766.893L466.784 825.622M329.008 766.893L319.379 866.62M329.008 766.893L284.179 768.982M329.008 766.893L372.038 703.286M239.349 771.071L117.598 689.721M239.349 771.071L222.651 860.309M239.349 771.071L93.4498 832.41M239.349 771.071L284.179 768.982M239.349 771.071L237.342 690.15M117.598 689.721L32.5858 746.061M-33.8691 507.131L101.376 525.045M222.651 860.309L114.21 966.76M222.651 860.309L319.379 866.62M114.21 966.76L-41.3288 933.731M114.21 966.76L93.4498 832.41M114.21 966.76L217.146 1047.63M114.21 966.76L51.213 1066.8M114.21 966.76L142.48 1068.4M-41.3288 933.731L-56.9466 810.406M-41.3288 933.731L93.4498 832.41M-41.3288 933.731L51.213 1066.8M-41.3288 933.731L-31.7376 1025M-41.3288 933.731L-105.498 887.744M-56.9466 810.406L32.5858 746.061M-56.9466 810.406L-53.6946 689.617M-56.9466 810.406L-110.143 825.202M-56.9466 810.406L-108.088 728.1M32.5858 746.061L93.4498 832.41M32.5858 746.061L-53.6946 689.617M-53.6946 689.617L-108.088 728.1M466.784 825.622L424.663 926.083M466.784 825.622L319.379 866.62M466.784 825.622L492.238 809.72M466.784 825.622L461.288 698.444M424.663 926.083L319.379 866.62M424.663 926.083L339.4 949.797M424.663 926.083L483.815 946.478M254.136 973.512L217.146 1047.63M254.136 973.512L319.379 866.62M254.136 973.512L339.4 949.797M217.146 1047.63L198.147 1141.66M217.146 1047.63L142.48 1068.4M217.146 1047.63L294.612 1058.27M198.147 1141.66L119.628 1163.5M198.147 1141.66L142.48 1068.4M119.628 1163.5L51.213 1066.8M119.628 1163.5L142.48 1068.4M119.628 1163.5L46.8891 1183.73M51.213 1066.8L142.48 1068.4M51.213 1066.8L9.85209 1117.75M51.213 1066.8L-31.7376 1025M9.85209 1117.75L46.8891 1183.73M9.85209 1117.75L-31.7376 1025M9.85209 1117.75L-34.9989 1117.76M46.8891 1183.73L-18.9212 1175.57L-70.755 1201.92L-34.9989 1117.76M-135.148 337.05L-95.403 256.971M-135.148 337.05L-315.778 346.29M-95.403 256.971L-90.7748 170.052M-315.778 346.29L-335.607 274.996M426.691 422.108L337.507 420.446M426.691 422.108L490.611 503.455L452.213 611.703M426.691 422.108L455.821 273.882M167.008 255.345L92.7779 96.6838M167.008 255.345L222.283 316.002M92.7779 96.6838L2.89923 170.985M92.7779 96.6838L-29.1223 55.8554M92.7779 96.6838L214.958 77.01M92.7779 96.6838L131.176 -11.5641M2.89923 170.985L-90.7748 170.052M2.89923 170.985L-29.1223 55.8554M-90.7748 170.052L-139.685 53.911M-90.7748 170.052L-251.01 179.848M-29.1223 55.8554L-139.685 53.911M-29.1223 55.8554L131.176 -11.5641M-139.685 53.911L-251.01 179.848M-139.685 53.911L-325.072 65.5121M-251.01 179.848L-298.41 161.373M327.135 187.426L348.827 94.4486M327.135 187.426L393.085 190.13L455.821 273.882M348.827 94.4486L214.958 77.01M348.827 94.4486L283.665 31.1359M214.958 77.01L244.285 -20.1887M244.285 -20.1887L131.176 -11.5641M244.285 -20.1887L283.665 31.1359M244.285 -20.1887L261.692 -47.8654L340.284 -37.0286L327.803 18.8596L283.665 31.1359M-298.41 161.373L-317.369 210.76M-298.41 161.373L-325.072 65.5121M-298.41 161.373L-367.629 159.866M-317.369 210.76L-335.607 274.996M-335.607 274.996L-367.629 159.866M-325.072 65.5121L-367.629 159.866M-110.143 825.202L-105.498 887.744M-110.143 825.202L-146.899 738.894M-105.498 887.744L-158.484 911.823L-215.478 773.019L-146.899 738.894M-105.498 887.744L-77.0942 989.868M-146.899 738.894L-108.088 728.1M-77.0942 989.868L-31.7376 1025M-77.0942 989.868L-80.5759 1045.33M-31.7376 1025L-51.4787 1058.51M-80.5759 1045.33L-92.728 1122.92L-34.9989 1117.76M-80.5759 1045.33L-51.4787 1058.51M-34.9989 1117.76L-51.4787 1058.51M339.4 949.797L419.102 1023.64M419.102 1023.64L294.612 1058.27M419.102 1023.64L470.686 1032.65M419.102 1023.64L483.815 946.478M294.612 1058.27L364.682 1144.13L470.686 1032.65M470.686 1032.65L542.576 1035.49M470.686 1032.65L483.815 946.478M483.815 946.478L528.508 984.907M483.815 946.478L492.238 809.72M528.508 984.907L610.936 885.691M528.508 984.907L542.576 1035.49M610.936 885.691L492.238 809.72M610.936 885.691L634.855 941.835L605.642 1062.58L542.576 1035.49M492.238 809.72L532.751 625.112M325.201 624.454L269.404 686.941M269.404 686.941L284.179 768.982M269.404 686.941L372.038 703.286M269.404 686.941L237.342 690.15M372.038 703.286L461.288 698.444M532.751 625.112L452.213 611.703M532.751 625.112L461.288 698.444M452.213 611.703L461.288 698.444" stroke="#FAFAFA" stroke-width="2"/>
<circle opacity="0.5" cx="-3.34486" cy="365.782" r="10" transform="rotate(74.4569 -3.34486 365.782)" fill="#FAFAFA"/>
<circle cx="76.1132" cy="591.754" r="10" transform="rotate(74.4569 76.1132 591.754)" fill="#FAFAFA"/>
<circle opacity="0.5" cx="94.149" cy="96.8214" r="10" transform="rotate(74.4569 94.149 96.8214)" fill="#FAFAFA"/>
<circle cx="237.348" cy="772.147" r="10" transform="rotate(74.4569 237.348 772.147)" fill="#FAFAFA"/>
<circle cx="424.589" cy="926.622" r="10" transform="rotate(74.4569 424.589 926.622)" fill="#FAFAFA"/>
<circle cx="114.831" cy="966.068" r="10" transform="rotate(74.4569 114.831 966.068)" fill="#FAFAFA"/>
<circle cx="411.647" cy="637.517" r="10" transform="rotate(74.4569 411.647 637.517)" fill="#FAFAFA"/>
<circle cx="348.57" cy="93.5254" r="10" transform="rotate(74.4569 348.57 93.5254)" fill="#FAFAFA"/>
<circle cx="111.993" cy="313.982" r="7" transform="rotate(74.4569 111.993 313.982)" fill="#FAFAFA"/>
<circle cx="426.349" cy="421.685" r="7" transform="rotate(74.4569 426.349 421.685)" fill="#FAFAFA"/>
<circle cx="215.439" cy="77.6179" r="7" transform="rotate(74.4569 215.439 77.6179)" fill="#FAFAFA"/>
<circle opacity="0.5" cx="416.913" cy="1022.17" r="7" transform="rotate(74.4569 416.913 1022.17)" fill="#FAFAFA"/>
<circle cx="236.705" cy="609.366" r="7" transform="rotate(74.4569 236.705 609.366)" fill="#FAFAFA"/>
<circle opacity="0.5" cx="300.575" cy="316.542" r="7" transform="rotate(74.4569 300.575 316.542)" fill="#FAFAFA"/>
<circle cx="528.454" cy="982.846" r="7" transform="rotate(74.4569 528.454 982.846)" fill="#FAFAFA"/>
<circle cx="255.331" cy="441.226" r="10" transform="rotate(74.4569 255.331 441.226)" fill="#FAFAFA"/>
<circle cx="255.331" cy="441.226" r="15.5" transform="rotate(74.4569 255.331 441.226)" stroke="#FAFAFA" stroke-width="3"/>
<circle cx="92.6804" cy="834.181" r="10" transform="rotate(74.4569 92.6804 834.181)" fill="#FAFAFA"/>
<circle cx="92.6804" cy="834.181" r="15.5" transform="rotate(74.4569 92.6804 834.181)" stroke="#FAFAFA" stroke-width="3"/>
<circle cx="339.808" cy="950.203" r="10" transform="rotate(74.4569 339.808 950.203)" fill="#FAFAFA"/>
<circle cx="339.808" cy="950.203" r="15.5" transform="rotate(74.4569 339.808 950.203)" stroke="#FAFAFA" stroke-width="3"/>
<path d="M257.52 442.693L112.2 313.924L46.9397 286.405L-95.403 256.971L-237.746 227.537L-317.369 210.76" stroke="#FAFAFA" stroke-width="2"/>
<path d="M198.147 1141.66L142.48 1068.4L114.21 966.76L93.4498 832.41L32.5857 746.061L-53.6946 689.617L-166.192 669.527L-224.834 647.952L-219.651 477.323" stroke="#FAFAFA" stroke-width="2"/>
<path d="M257.52 442.693L246.427 525.96L235.334 609.228L237.342 690.15L239.349 771.071L93.4498 832.41L-41.3288 933.731L-31.7376 1025L-77.0942 989.868L-80.5759 1045.33L-92.728 1122.92" stroke="#FAFAFA" stroke-width="2"/>
<path d="M-41.3288 933.731L114.21 966.76L217.146 1047.63L254.136 973.512L339.4 949.797L424.663 926.082L483.815 946.478L528.508 984.907L542.576 1035.49" stroke="#FAFAFA" stroke-width="2"/>
<path d="M112.201 313.924L167.008 255.345L221.815 196.767L214.958 77.01L244.285 -20.1887L261.692 -47.8654" stroke="#FAFAFA" stroke-width="2"/>
<path d="M-166.192 669.527L-193.055 572.944L-219.919 476.36L-135.148 337.05L-95.403 256.971L-90.7748 170.052L-139.685 53.911" stroke="#FAFAFA" stroke-width="2"/>
<path d="M528.508 984.907L610.936 885.691L492.238 809.72L466.784 825.622L329.008 766.893L372.038 703.286L415.067 639.68L325.201 624.454L235.334 609.228L75.3035 589.904L-165.918 669.451" stroke="#FAFAFA" stroke-width="2"/>
<path d="M257.52 442.693L337.507 420.446L426.691 422.108M426.691 422.108L490.611 503.455M426.691 422.108L455.821 273.882" stroke="#FAFAFA" stroke-width="2"/>
<path d="M348.827 94.4486L214.958 77.01" stroke="#FAFAFA" stroke-width="2"/>
<circle cx="330.647" cy="767.994" r="10" transform="rotate(74.4569 330.647 767.994)" fill="#FAFAFA"/>
<circle cx="330.647" cy="767.994" r="15.5" transform="rotate(74.4569 330.647 767.994)" stroke="#FAFAFA" stroke-width="3"/>
<circle cx="492.158" cy="811.299" r="10" transform="rotate(74.4569 492.158 811.299)" fill="#FAFAFA"/>
<path d="M348.827 94.4485L327.135 187.425L393.085 190.13L455.821 273.882" stroke="#FAFAFA" stroke-width="2"/>
<path d="M415.067 639.68L452.213 611.703L490.611 503.455" stroke="#FAFAFA" stroke-width="2"/>
<circle cx="455.821" cy="273.882" r="7" transform="rotate(74.4569 455.821 273.882)" fill="#FAFAFA"/>
<path opacity="0.5" d="M1698.39 834.73L1556.05 805.288M1698.39 834.73L1776.43 715.981M1698.39 834.73L1711.65 882.42M1698.39 834.73L1778.01 851.511M1413.71 775.847L1463.16 698.002M1413.71 775.847L1348.45 748.324M1413.71 775.847L1556.05 805.288M1413.71 775.847L1457.74 891.269M1413.71 775.847L1293.64 806.9M1512.61 620.157L1680.57 585.906M1512.61 620.157L1463.16 698.002M1512.61 620.157L1494.53 555.125M1512.61 620.157L1595.8 725.211M1680.57 585.906L1595.8 725.211M1680.57 585.906L1729.44 572.319L1776.43 715.981M1680.57 585.906L1653.72 489.321L1626.86 392.736M1626.86 392.736L1385.36 472.346M1626.86 392.736L1579.91 475.852L1494.53 555.125M1626.86 392.736L1514.36 372.64M1626.86 392.736L1607.57 323.368M1385.36 472.346L1225.33 453.013M1385.36 472.346L1343.07 372.527M1385.36 472.346L1359.28 537.203M1385.36 472.346L1514.36 372.64M1318.17 639.455L1463.16 698.002M1318.17 639.455L1214.23 536.28M1318.17 639.455L1203.13 619.547M1318.17 639.455L1359.28 537.203M1318.17 639.455L1494.53 555.125M1463.16 698.002L1595.8 725.211M1225.33 453.013L1214.23 536.28M1225.33 453.013L1135.46 437.783M1225.33 453.013L1223.33 372.092M1203.13 619.547L1348.45 748.324M1203.13 619.547L1159.73 745.272M1203.13 619.547L1214.23 536.28M1203.13 619.547L1238.36 746.24M1203.13 619.547L1123.15 641.79M1348.45 748.324L1293.64 806.9M1238.83 865.475L1159.73 745.272M1238.83 865.475L1293.64 806.9M1238.83 865.475L1367.86 965.565M1238.83 865.475L1133.51 874.811M1238.83 865.475L1245.68 985.232M1159.73 745.272L1033.96 640.123M1159.73 745.272L1170.45 811.89L1133.51 874.811M1159.73 745.272L1238.36 746.24M1159.73 745.272L1123.15 641.79M1159.73 745.272L1004.82 788.348M1214.23 536.28L1102.26 538.613M1214.23 536.28L1154.82 507.391L1135.46 437.783M1102.26 538.613L1045.6 422.552M1102.26 538.613L1033.96 640.123M1102.26 538.613L1123.15 641.79M1045.6 422.552L1135.46 437.783M1045.6 422.552L1088.63 358.948M1045.6 422.552L1008.45 450.527M1131.66 295.343L993.891 236.607M1131.66 295.343L1141.3 195.617M1131.66 295.343L1176.49 293.257M1131.66 295.343L1088.63 358.948M1221.32 291.17L1343.07 372.527M1221.32 291.17L1238.03 201.933M1221.32 291.17L1367.23 229.839M1221.32 291.17L1176.49 293.257M1221.32 291.17L1223.33 372.092M1343.07 372.527L1428.08 316.191M1494.53 555.125L1359.28 537.203M1238.03 201.933L1346.47 95.4878M1238.03 201.933L1141.3 195.617M1346.47 95.4878L1502.01 128.525M1346.47 95.4878L1367.23 229.839M1346.47 95.4878L1243.54 14.6076M1346.47 95.4878L1409.47 -4.54822M1346.47 95.4878L1318.21 -6.15554M1502.01 128.525L1517.62 251.851M1502.01 128.525L1367.23 229.839M1502.01 128.525L1409.47 -4.54822M1502.01 128.525L1492.42 37.2573M1502.01 128.525L1566.18 174.516M1517.62 251.851L1428.08 316.191M1517.62 251.851L1514.36 372.64M1517.62 251.851L1570.82 237.058M1517.62 251.851L1568.76 334.16M1428.08 316.191L1367.23 229.839M1428.08 316.191L1514.36 372.64M1514.36 372.64L1568.76 334.16M993.891 236.607L1036.02 136.149M993.891 236.607L1141.3 195.617M993.891 236.607L968.436 252.508M993.891 236.607L999.38 363.786M1036.02 136.149L1141.3 195.617M1036.02 136.149L1121.28 112.439M1036.02 136.149L976.866 115.75M1206.55 88.7284L1243.54 14.6076M1206.55 88.7284L1141.3 195.617M1206.55 88.7284L1121.28 112.439M1243.54 14.6076L1262.54 -79.421M1243.54 14.6076L1318.21 -6.15554M1243.54 14.6076L1166.08 3.97257M1262.54 -79.421L1341.06 -101.256M1262.54 -79.421L1318.21 -6.15554M1341.06 -101.256L1409.47 -4.54822M1341.06 -101.256L1318.21 -6.15554M1341.06 -101.256L1413.8 -121.483M1409.47 -4.54822L1318.21 -6.15554M1409.47 -4.54822L1450.84 -55.4923M1409.47 -4.54822L1492.42 37.2573M1450.84 -55.4923L1413.8 -121.483M1450.84 -55.4923L1492.42 37.2573M1450.84 -55.4923L1495.69 -55.509M1413.8 -121.483L1479.61 -113.316L1531.45 -139.666L1495.69 -55.509M1595.8 725.211L1556.05 805.288M1595.8 725.211L1776.43 715.981M1556.05 805.288L1551.41 892.207M1776.43 715.981L1796.25 787.276M1033.96 640.123L1123.15 641.79M1033.96 640.123L970.047 558.772L1008.45 450.527M1033.96 640.123L1004.82 788.348M1293.64 806.9L1367.86 965.565M1293.64 806.9L1238.36 746.24M1367.86 965.565L1457.74 891.269M1367.86 965.565L1489.76 1006.4M1367.86 965.565L1245.68 985.232M1367.86 965.565L1329.45 1073.81M1457.74 891.269L1551.41 892.207M1457.74 891.269L1489.76 1006.4M1551.41 892.207L1600.32 1008.35M1551.41 892.207L1711.65 882.42M1489.76 1006.4L1600.32 1008.35M1489.76 1006.4L1329.45 1073.81M1600.32 1008.35L1711.65 882.42M1600.32 1008.35L1785.71 996.76M1711.65 882.42L1759.05 900.897M1133.51 874.811L1111.81 967.787M1133.51 874.811L1067.56 872.103L1004.82 788.348M1111.81 967.787L1245.68 985.232M1111.81 967.787L1176.97 1031.1M1245.68 985.232L1216.34 1082.43M1216.34 1082.43L1329.45 1073.81M1216.34 1082.43L1176.97 1031.1M1216.34 1082.43L1198.94 1110.11L1120.34 1099.26L1132.83 1043.38L1176.97 1031.1M1759.05 900.897L1778.01 851.511M1759.05 900.897L1785.71 996.76M1759.05 900.897L1828.27 902.407M1778.01 851.511L1796.25 787.276M1796.25 787.276L1828.27 902.407M1785.71 996.76L1828.27 902.407M1570.82 237.058L1566.18 174.516M1570.82 237.058L1607.57 323.368M1566.18 174.516L1619.16 150.44L1676.15 289.247L1607.57 323.368M1566.18 174.516L1537.78 72.3906M1607.57 323.368L1568.76 334.16M1537.78 72.3906L1492.42 37.2573M1537.78 72.3906L1541.26 16.9295M1492.42 37.2573L1512.17 3.74277M1541.26 16.9295L1553.42 -60.6638L1495.69 -55.509M1541.26 16.9295L1512.17 3.74277M1495.69 -55.509L1512.17 3.74277M1121.28 112.439L1041.58 38.5909M1041.58 38.5909L1166.08 3.97257M1041.58 38.5909L990 29.5814M1041.58 38.5909L976.866 115.75M1166.08 3.97257L1096.01 -81.8949L990 29.5814M990 29.5814L918.11 26.7375M990 29.5814L976.866 115.75M976.866 115.75L932.175 77.3183M976.866 115.75L968.436 252.508M932.175 77.3183L849.742 176.53M932.175 77.3183L918.11 26.7375M849.742 176.53L968.436 252.508M849.742 176.53L825.826 120.385L855.046 -0.35729L918.11 26.7375M968.436 252.508L927.913 437.113M1135.46 437.783L1191.26 375.299M1191.26 375.299L1176.49 293.257M1191.26 375.299L1088.63 358.948M1191.26 375.299L1223.33 372.092M1088.63 358.948L999.38 363.786M927.913 437.113L1008.45 450.527M927.913 437.113L999.38 363.786M1008.45 450.527L999.38 363.786" stroke="#FAFAFA" stroke-width="2"/>
<circle cx="1384.55" cy="470.496" r="10" transform="rotate(-105.54 1384.55 470.496)" fill="#FAFAFA"/>
<circle opacity="0.5" cx="1366.49" cy="965.428" r="10" transform="rotate(-105.54 1366.49 965.428)" fill="#FAFAFA"/>
<circle cx="1223.32" cy="290.095" r="10" transform="rotate(-105.54 1223.32 290.095)" fill="#FAFAFA"/>
<circle cx="1036.09" cy="135.609" r="10" transform="rotate(-105.54 1036.09 135.609)" fill="#FAFAFA"/>
<circle cx="1345.85" cy="96.1796" r="10" transform="rotate(-105.54 1345.85 96.1796)" fill="#FAFAFA"/>
<circle cx="1049.02" cy="424.714" r="10" transform="rotate(-105.54 1049.02 424.714)" fill="#FAFAFA"/>
<circle cx="1112.07" cy="968.71" r="10" transform="rotate(-105.54 1112.07 968.71)" fill="#FAFAFA"/>
<circle cx="1348.65" cy="748.266" r="7" transform="rotate(-105.54 1348.65 748.266)" fill="#FAFAFA"/>
<circle cx="1034.3" cy="640.547" r="7" transform="rotate(-105.54 1034.3 640.547)" fill="#FAFAFA"/>
<circle cx="1244.5" cy="15.3793" r="7" transform="rotate(-105.54 1244.5 15.3793)" fill="#FAFAFA"/>
<circle cx="1245.2" cy="984.625" r="7" transform="rotate(-105.54 1245.2 984.625)" fill="#FAFAFA"/>
<circle opacity="0.5" cx="1043.77" cy="40.0582" r="7" transform="rotate(-105.54 1043.77 40.0582)" fill="#FAFAFA"/>
<circle cx="1223.96" cy="452.876" r="7" transform="rotate(-105.54 1223.96 452.876)" fill="#FAFAFA"/>
<circle opacity="0.5" cx="1160.07" cy="745.696" r="7" transform="rotate(-105.54 1160.07 745.696)" fill="#FAFAFA"/>
<circle cx="932.229" cy="79.3792" r="7" transform="rotate(-105.54 932.229 79.3792)" fill="#FAFAFA"/>
<circle cx="917.762" cy="27.3533" r="7" transform="rotate(-105.54 917.762 27.3533)" fill="#FAFAFA"/>
<circle cx="1205.32" cy="621.015" r="10" transform="rotate(-105.54 1205.32 621.015)" fill="#FAFAFA"/>
<circle cx="1205.32" cy="621.015" r="15.5" transform="rotate(-105.54 1205.32 621.015)" stroke="#FAFAFA" stroke-width="3"/>
<circle cx="1367.99" cy="228.068" r="10" transform="rotate(-105.54 1367.99 228.068)" fill="#FAFAFA"/>
<circle cx="1367.99" cy="228.068" r="15.5" transform="rotate(-105.54 1367.99 228.068)" stroke="#FAFAFA" stroke-width="3"/>
<circle cx="1120.87" cy="112.033" r="10" transform="rotate(-105.54 1120.87 112.033)" fill="#FAFAFA"/>
<circle cx="1120.87" cy="112.033" r="15.5" transform="rotate(-105.54 1120.87 112.033)" stroke="#FAFAFA" stroke-width="3"/>
<path d="M1203.13 619.547L1348.45 748.324L1413.71 775.847L1556.05 805.288L1698.39 834.73L1778.01 851.511" stroke="#FAFAFA" stroke-width="2"/>
<path d="M1262.54 -79.4209L1318.21 -6.15549L1346.47 95.4878L1367.23 229.839L1428.08 316.191L1514.36 372.64L1626.86 392.736L1685.5 414.314L1680.31 584.943" stroke="#FAFAFA" stroke-width="2"/>
<path d="M1203.13 619.547L1214.23 536.28L1225.33 453.013L1223.33 372.092L1221.32 291.17L1367.23 229.839L1502.01 128.525L1492.42 37.2573L1537.78 72.3906L1541.26 16.9296L1553.42 -60.6637" stroke="#FAFAFA" stroke-width="2"/>
<path d="M1502.01 128.525L1346.47 95.4878L1243.54 14.6076L1206.55 88.7285L1121.28 112.439L1036.02 136.149L976.866 115.75L932.175 77.3184L918.11 26.7376" stroke="#FAFAFA" stroke-width="2"/>
<path d="M1348.45 748.324L1293.64 806.9L1238.83 865.475L1245.68 985.232L1216.34 1082.43L1198.94 1110.11" stroke="#FAFAFA" stroke-width="2"/>
<path d="M1626.86 392.736L1653.72 489.321L1680.57 585.906L1595.8 725.211L1556.05 805.288L1551.41 892.207L1600.32 1008.35" stroke="#FAFAFA" stroke-width="2"/>
<path d="M932.175 77.3184L849.742 176.53L968.436 252.508L993.891 236.607L1131.66 295.344L1088.63 358.948L1045.6 422.552L1135.46 437.783L1225.33 453.013L1385.36 472.346L1626.58 392.812" stroke="#FAFAFA" stroke-width="2"/>
<path d="M1203.13 619.547L1123.15 641.79L1033.96 640.123M1033.96 640.123L970.047 558.772M1033.96 640.123L1004.82 788.348" stroke="#FAFAFA" stroke-width="2"/>
<path d="M1111.81 967.787L1245.68 985.232" stroke="#FAFAFA" stroke-width="2"/>
<circle cx="1130.02" cy="294.242" r="10" transform="rotate(-105.54 1130.02 294.242)" fill="#FAFAFA"/>
<circle cx="1130.02" cy="294.242" r="15.5" transform="rotate(-105.54 1130.02 294.242)" stroke="#FAFAFA" stroke-width="3"/>
<circle cx="968.516" cy="250.929" r="10" transform="rotate(-105.54 968.516 250.929)" fill="#FAFAFA"/>
<path d="M1111.81 967.787L1133.51 874.811L1067.56 872.103L1004.82 788.348" stroke="#FAFAFA" stroke-width="2"/>
<path d="M1045.6 422.552L1008.45 450.527L970.047 558.772" stroke="#FAFAFA" stroke-width="2"/>
<circle cx="1004.82" cy="788.348" r="7" transform="rotate(-105.54 1004.82 788.348)" fill="#FAFAFA"/>
</g>
</svg>
