<svg width="120" height="115" viewBox="0 0 120 115" fill="none" xmlns="http://www.w3.org/2000/svg">
<path d="M2.464 104V81.44H10.848C14.624 81.44 17.536 82.4107 19.584 84.352C21.6533 86.2933 22.688 89.0773 22.688 92.704C22.688 96.3093 21.6533 99.0933 19.584 101.056C17.536 103.019 14.624 104 10.848 104H2.464ZM6.56 100.608H10.592C15.7973 100.608 18.4 97.9733 18.4 92.704C18.4 87.456 15.7973 84.832 10.592 84.832H6.56V100.608ZM34.167 104.32C32.3963 104.32 30.871 103.989 29.591 103.328C28.311 102.667 27.319 101.728 26.615 100.512C25.9323 99.296 25.591 97.856 25.591 96.192C25.591 94.5707 25.9217 93.152 26.583 91.936C27.2657 90.72 28.1937 89.7707 29.367 89.088C30.5617 88.384 31.9163 88.032 33.431 88.032C35.6497 88.032 37.399 88.736 38.679 90.144C39.9803 91.552 40.631 93.472 40.631 95.904V97.088H29.431C29.7297 99.8827 31.3297 101.28 34.231 101.28C35.1057 101.28 35.9803 101.152 36.855 100.896C37.7297 100.619 38.5297 100.192 39.255 99.616L40.375 102.304C39.6283 102.923 38.6897 103.413 37.559 103.776C36.4283 104.139 35.2977 104.32 34.167 104.32ZM33.591 90.752C32.4177 90.752 31.4683 91.1147 30.743 91.84C30.0177 92.5653 29.5803 93.5467 29.431 94.784H37.303C37.2177 93.4827 36.855 92.4907 36.215 91.808C35.5963 91.104 34.7217 90.752 33.591 90.752ZM43.7988 104V88.352H47.7028V90.784C48.2361 89.888 48.9508 89.2053 49.8468 88.736C50.7641 88.2667 51.7881 88.032 52.9188 88.032C56.6094 88.032 58.4548 90.176 58.4548 94.464V104H54.4548V94.656C54.4548 93.44 54.2201 92.5547 53.7508 92C53.3028 91.4453 52.5988 91.168 51.6388 91.168C50.4654 91.168 49.5268 91.5413 48.8228 92.288C48.1401 93.0133 47.7988 93.984 47.7988 95.2V104H43.7988ZM69.6855 104.32C65.5468 104.32 63.4775 102.272 63.4775 98.176V91.36H60.4695V88.352H63.4775V83.68H67.4775V88.352H72.2135V91.36H67.4775V97.952C67.4775 98.976 67.7015 99.744 68.1495 100.256C68.5975 100.768 69.3228 101.024 70.3255 101.024C70.6242 101.024 70.9335 100.992 71.2535 100.928C71.5735 100.843 71.9042 100.757 72.2455 100.672L72.8535 103.616C72.4695 103.829 71.9788 104 71.3815 104.128C70.8055 104.256 70.2402 104.32 69.6855 104.32ZM79.9508 104.32C78.8201 104.32 77.8068 104.107 76.9108 103.68C76.0361 103.232 75.3428 102.635 74.8307 101.888C74.3401 101.141 74.0948 100.299 74.0948 99.36C74.0948 98.208 74.3934 97.3013 74.9908 96.64C75.5881 95.9573 76.5588 95.4667 77.9028 95.168C79.2468 94.8693 81.0494 94.72 83.3108 94.72H84.4308V94.048C84.4308 92.9813 84.1961 92.2133 83.7268 91.744C83.2574 91.2747 82.4681 91.04 81.3588 91.04C80.4841 91.04 79.5881 91.1787 78.6708 91.456C77.7534 91.712 76.8254 92.1173 75.8868 92.672L74.7348 89.952C75.2894 89.568 75.9401 89.2373 76.6868 88.96C77.4548 88.6613 78.2548 88.4373 79.0868 88.288C79.9401 88.1173 80.7401 88.032 81.4868 88.032C83.7694 88.032 85.4654 88.5653 86.5748 89.632C87.6841 90.6773 88.2388 92.3093 88.2388 94.528V104H84.4948V101.504C84.1321 102.379 83.5561 103.072 82.7668 103.584C81.9774 104.075 81.0388 104.32 79.9508 104.32ZM80.7828 101.568C81.8281 101.568 82.6921 101.205 83.3748 100.48C84.0788 99.7547 84.4308 98.8373 84.4308 97.728V97.024H83.3428C81.3374 97.024 79.9401 97.184 79.1508 97.504C78.3828 97.8027 77.9988 98.3573 77.9988 99.168C77.9988 99.872 78.2441 100.448 78.7348 100.896C79.2254 101.344 79.9081 101.568 80.7828 101.568ZM97.7388 104.32C95.8828 104.32 94.5068 103.819 93.6108 102.816C92.7361 101.792 92.2988 100.299 92.2988 98.336V81.44H96.2988V98.144C96.2988 100.064 97.1094 101.024 98.7308 101.024C98.9654 101.024 99.2001 101.013 99.4348 100.992C99.6694 100.971 99.8934 100.928 100.107 100.864L100.043 104.032C99.2748 104.224 98.5068 104.32 97.7388 104.32Z" fill="#2C2E2F"/>
<path d="M108.566 102.72V96.224H102.23V93.408H108.566V87.104H111.51V93.408H117.846V96.224H111.51V102.72H108.566Z" fill="#0799B9"/>
<path d="M27 16.1108C27 26.6016 29.5427 36.5303 31.4652 42.5251C34.349 51.5172 39.6515 64.4433 43.7446 64.4433C48.3959 64.4433 53.6054 50.3931 56.5822 50.3931C59.559 50.3931 62.1637 71 69.7918 71C77.42 71 87.4668 44.0237 91.0017 31.4723C94.7071 18.3156 94.1646 0 81.5131 0C72.5826 0 67.7453 9.74142 60.8614 9.74142C54.7217 9.74142 43.7446 0 36.4886 0C29.2326 0 27 8.84746 27 16.1108Z" fill="#0799B9"/>
</svg>
