<svg width="47" height="50" viewBox="0 0 47 50" fill="none" xmlns="http://www.w3.org/2000/svg">
<path d="M0 11.3456C2.47502e-05 18.7335 1.81072 25.7256 3.17979 29.9472C5.23341 36.2797 9.00939 45.3826 11.9242 45.3826C15.2365 45.3826 18.9462 35.4881 21.0661 35.4881L24.1134 6.86016C19.7412 6.86016 11.9242 0 6.75703 0C1.58987 0 -1.71358e-05 6.2306 0 11.3456Z" fill="#27B0CE"/>
<path d="M45.5771 22.1636C48.2158 12.8983 47.8294 0 38.82 0C32.4604 0 29.0156 6.86016 24.1135 6.86016L21.0662 35.4881C23.186 35.4881 25.0409 50 30.473 50C35.9052 50 43.0598 31.0026 45.5771 22.1636Z" fill="#0799B9"/>
<path d="M17.4452 24.3021C16.8069 23.5102 16.9336 22.3536 17.7282 21.7186L25.4011 15.5871C26.1957 14.9522 27.3572 15.0794 27.9955 15.8712C28.6338 16.6631 28.5072 17.8197 27.7126 18.4547L20.0396 24.5862C19.2451 25.2211 18.0835 25.0939 17.4452 24.3021Z" fill="white"/>
<path d="M18.4848 14.8323C19.2789 14.1977 20.4399 14.3248 21.0779 15.1163L27.2385 22.759C27.8765 23.5505 27.7499 24.7065 26.9557 25.3411C26.1616 25.9757 25.0006 25.8486 24.3627 25.0572L18.202 17.4144C17.564 16.623 17.6907 15.4669 18.4848 14.8323Z" fill="white"/>
</svg>
